<svg version="1.0" xmlns="http://www.w3.org/2000/svg" width="178.667" height="40" viewBox="0 0 134 30"><path d="M8.4 11.7c-2 5.4-4.3 11.3-5 13L2.1 28h4.4c3.5 0 4.5-.4 5-2 .5-1.7 1.5-2 7-2 5.4 0 6.6.3 7.5 2 .8 1.5 2.1 2 5 2 2.2 0 4-.4 4-.9s-2.1-6.4-4.6-13L25.7 2H12.2l-3.8 9.7zm12.5 1c.7 2.1 1.5 4.4 1.7 5 .4.9-.6 1.3-3.5 1.3-2.3 0-4.1-.3-4.1-.7 0-1.6 3.3-9.3 4-9.3.4 0 1.2 1.7 1.9 3.7zM40 15v13h23v-6H49V2h-9v13zM73.6 3C68.1 4.7 67 6.6 67 14.7c0 4.1.4 8.3 1 9.3 1.5 2.7 6.4 4 15.7 4 8 0 8.6-.1 11.4-3 2.5-2.4 3-3.7 2.7-6.7l-.3-3.8-7.2-.3c-6.8-.3-7.3-.1-7.3 1.8 0 1.5.6 2 2.4 2 3.2 0 4 1.4 2 3.4-1.8 1.8-6.6 2.1-9.5.6-1.5-.9-1.9-2.2-1.9-6.3 0-2.9.5-5.8 1.2-6.5 1.5-1.5 9-1.6 10.5-.1.5.5 3.1.9 5.6.7 4.6-.3 4.6-.3 3.4-2.8-.7-1.3-2.4-3-3.7-3.7-2.8-1.4-15-1.6-19.4-.3zM108 3.1c-5.3 1.5-7 4.2-7 10.9 0 7.9 1.3 10.8 5.5 12.5 4.7 2 16.8 1.9 21.1-.1 4-1.9 4.6-3.7 4.2-12.8-.3-6.1-.6-7.1-3-8.9-3.1-2.3-15.1-3.3-20.8-1.6zm13.9 6.3c.7.8 1.1 3.7.9 6.8l-.3 5.3-4.8.3c-2.7.2-5.5-.2-6.3-.9-1.7-1.4-1.9-10-.2-11.7 1.7-1.7 9.3-1.5 10.7.2z"/></svg>